<svg width="800" height="560" viewBox="0 0 800 560" fill="none" xmlns="http://www.w3.org/2000/svg">
  <defs>
    <linearGradient id="bg" x1="0" y1="0" x2="800" y2="560" gradientUnits="userSpaceOnUse">
      <stop stop-color="#F8FAFC" />
      <stop offset="1" stop-color="#EEF2F7" />
    </linearGradient>
    <linearGradient id="accent" x1="0" y1="0" x2="1" y2="1">
      <stop stop-color="#3B82F6" />
      <stop offset="1" stop-color="#38BDF8" />
    </linearGradient>
  </defs>
  <rect width="800" height="560" rx="40" fill="url(#bg)" />
  <circle cx="140" cy="120" r="44" fill="#E2E8F0" />
  <circle cx="680" cy="110" r="28" fill="#E2E8F0" />
  <circle cx="710" cy="150" r="18" fill="#CBD5E1" />

  <path d="M250 120 C300 80 380 80 430 120" stroke="#94A3B8" stroke-width="3" stroke-linecap="round" />
  <path d="M370 120 C420 80 500 80 550 120" stroke="#94A3B8" stroke-width="3" stroke-linecap="round" />

  <rect x="150" y="160" width="250" height="270" rx="22" fill="#FFFFFF" stroke="#CBD5E1" stroke-width="2" />
  <rect x="400" y="160" width="250" height="270" rx="22" fill="#FFFFFF" stroke="#CBD5E1" stroke-width="2" />
  <line x1="400" y1="170" x2="400" y2="420" stroke="#E2E8F0" stroke-width="3" />

  <line x1="430" y1="205" x2="610" y2="205" stroke="#CBD5E1" stroke-width="3" stroke-linecap="round" />
  <line x1="430" y1="235" x2="590" y2="235" stroke="#E2E8F0" stroke-width="3" stroke-linecap="round" />
  <line x1="430" y1="265" x2="610" y2="265" stroke="#E2E8F0" stroke-width="3" stroke-linecap="round" />
  <line x1="430" y1="295" x2="570" y2="295" stroke="#E2E8F0" stroke-width="3" stroke-linecap="round" />
  <line x1="430" y1="325" x2="600" y2="325" stroke="#CBD5E1" stroke-width="3" stroke-linecap="round" />

  <circle cx="210" cy="210" r="10" fill="url(#accent)" />
  <circle cx="270" cy="240" r="8" fill="#93C5FD" />
  <circle cx="230" cy="280" r="7" fill="#60A5FA" />
  <circle cx="300" cy="270" r="8" fill="#93C5FD" />
  <circle cx="260" cy="320" r="9" fill="url(#accent)" />
  <line x1="210" y1="210" x2="270" y2="240" stroke="#94A3B8" stroke-width="2" />
  <line x1="210" y1="210" x2="230" y2="280" stroke="#94A3B8" stroke-width="2" />
  <line x1="270" y1="240" x2="300" y2="270" stroke="#94A3B8" stroke-width="2" />
  <line x1="230" y1="280" x2="260" y2="320" stroke="#94A3B8" stroke-width="2" />
  <line x1="300" y1="270" x2="260" y2="320" stroke="#94A3B8" stroke-width="2" />

  <rect x="520" y="365" width="90" height="42" rx="18" fill="#E0F2FE" />
  <circle cx="540" cy="386" r="6" fill="#38BDF8" />
  <rect x="552" y="380" width="40" height="6" rx="3" fill="#7DD3FC" />
</svg>
