<svg width="1200" height="640" viewBox="0 0 1200 640" fill="none" xmlns="http://www.w3.org/2000/svg">
  <defs>
    <linearGradient id="bg" x1="0" y1="0" x2="1200" y2="640" gradientUnits="userSpaceOnUse">
      <stop stop-color="#F8FAFC" />
      <stop offset="1" stop-color="#F1F5F9" />
    </linearGradient>
    <linearGradient id="accent" x1="0" y1="0" x2="1" y2="1">
      <stop stop-color="#2563EB" />
      <stop offset="1" stop-color="#38BDF8" />
    </linearGradient>
  </defs>
  <rect width="1200" height="640" rx="36" fill="url(#bg)" />

  <rect x="170" y="120" width="860" height="420" rx="28" fill="#FFFFFF" stroke="#CBD5E1" stroke-width="2" />
  <rect x="210" y="150" width="180" height="40" rx="20" fill="#E0F2FE" />
  <rect x="235" y="166" width="130" height="8" rx="4" fill="#7DD3FC" />

  <line x1="230" y1="230" x2="960" y2="230" stroke="#E2E8F0" stroke-width="4" stroke-linecap="round" />
  <line x1="230" y1="270" x2="900" y2="270" stroke="#E2E8F0" stroke-width="4" stroke-linecap="round" />
  <line x1="230" y1="310" x2="940" y2="310" stroke="#CBD5E1" stroke-width="4" stroke-linecap="round" />
  <line x1="230" y1="350" x2="880" y2="350" stroke="#E2E8F0" stroke-width="4" stroke-linecap="round" />
  <line x1="230" y1="390" x2="930" y2="390" stroke="#E2E8F0" stroke-width="4" stroke-linecap="round" />

  <rect x="230" y="440" width="220" height="50" rx="24" fill="#EEF2FF" />
  <circle cx="260" cy="465" r="8" fill="url(#accent)" />
  <rect x="275" y="460" width="140" height="10" rx="5" fill="#93C5FD" />

  <circle cx="980" cy="170" r="36" fill="#E2E8F0" />
  <circle cx="1020" cy="210" r="24" fill="#CBD5E1" />
  <circle cx="950" cy="230" r="16" fill="#E2E8F0" />

  <rect x="930" y="440" width="110" height="70" rx="16" fill="#F8FAFC" stroke="#CBD5E1" stroke-width="2" />
  <line x1="950" y1="460" x2="1010" y2="460" stroke="#94A3B8" stroke-width="4" stroke-linecap="round" />
  <line x1="950" y1="490" x2="1000" y2="490" stroke="#94A3B8" stroke-width="4" stroke-linecap="round" />
</svg>
